# Blender v2.79 (sub 0) OBJ File: 'ship2.blend'
# www.blender.org
o Cube
v 0.720074 0.494475 1.446834
v 0.285563 0.404992 0.605141
v 1.727943 0.177983 1.668990
v 0.431019 0.494475 2.433194
v 1.831560 0.177983 2.509510
v 0.822550 0.177983 2.807397
v -0.726415 0.494475 1.443661
v -0.288216 0.404992 0.603882
v -1.735250 0.177983 1.661392
v -0.441691 0.494475 2.431279
v -1.842553 0.177983 2.501450
v -0.834860 0.177983 2.803761
v 0.720074 -0.494475 1.446834
v 0.285563 -0.404992 0.605141
v 1.727943 -0.177983 1.668990
v 0.431019 -0.494475 2.433194
v 1.831560 -0.177983 2.509510
v 0.822550 -0.177983 2.807397
v -0.726415 -0.494475 1.443661
v -0.288216 -0.404992 0.603882
v -1.735250 -0.177983 1.661392
v -0.441691 -0.494475 2.431279
v -1.842553 -0.177983 2.501450
v -0.834860 -0.177983 2.803761
v 0.465245 0.462236 1.120312
v -0.001376 0.506240 0.627322
v 0.430444 0.132751 -0.049345
v -0.005623 0.484606 2.563206
v 0.637706 0.301602 2.656514
v 1.282345 0.222479 2.566214
v 0.701968 0.000000 3.031438
v 1.833710 0.000000 1.608430
v 0.612943 0.618093 1.926342
v 1.153109 0.301602 1.385553
v 1.970948 0.222479 2.167577
v 1.963231 0.000000 2.659081
v -0.000117 0.132751 0.053515
v -0.470156 0.462236 1.118260
v -0.430224 0.132751 -0.051233
v -0.649356 0.301602 2.653691
v -1.293593 0.222479 2.560563
v -0.715262 0.000000 3.028329
v -1.840749 0.000000 1.600368
v -0.621389 0.618093 1.923635
v -1.159178 0.301602 1.380480
v -1.980440 0.222479 2.158908
v -1.974879 0.000000 2.650441
v 0.465245 -0.462236 1.120312
v -0.001376 -0.506240 0.627322
v 0.430444 -0.132751 -0.049345
v -0.005623 -0.484606 2.563206
v 0.637706 -0.301602 2.656514
v 1.282345 -0.222479 2.566214
v 0.612943 -0.618093 1.926342
v 1.153109 -0.301602 1.385553
v 1.970948 -0.222479 2.167577
v -0.000117 -0.132751 0.053515
v -0.470156 -0.462236 1.118260
v -0.430224 -0.132751 -0.051233
v -0.649356 -0.301602 2.653691
v -1.293593 -0.222479 2.560563
v -0.621389 -0.618093 1.923635
v -1.159178 -0.301602 1.380480
v -1.980440 -0.222479 2.158908
v 1.205754 0.419264 2.042207
v -0.003815 0.747464 1.739065
v 0.000691 0.199126 -0.314768
v -1.214703 0.419264 2.036897
v 0.644993 0.000000 0.232908
v 2.244623 0.000000 2.273498
v 1.205754 -0.419264 2.042207
v 1.268307 0.000000 2.800304
v -0.003815 -0.747464 1.739065
v -0.646009 0.000000 0.230075
v 0.000691 -0.199126 -0.314768
v -2.254577 0.000000 2.263628
v -1.214703 -0.419264 2.036897
v -0.007036 -0.000000 3.206947
v -1.280581 0.000000 2.794712
v -0.000849 0.000000 0.387198
v 0.694482 0.420569 1.467901
v 0.251939 0.334093 0.625229
v 1.687555 0.114366 1.698696
v 0.417112 0.422409 2.398931
v 1.808259 0.109951 2.472236
v 0.806878 0.112779 2.761971
v -0.700916 0.420569 1.464840
v -0.254680 0.334093 0.624118
v -1.694992 0.114366 1.691275
v -0.427634 0.422409 2.397078
v -1.819089 0.109951 2.464278
v -0.818989 0.112779 2.758404
v 0.694482 -0.420569 1.467901
v 0.251939 -0.334093 0.625229
v 1.687555 -0.114366 1.698696
v 0.417112 -0.422409 2.398931
v 1.808259 -0.109951 2.472236
v 0.806878 -0.112779 2.761971
v -0.700916 -0.420569 1.464840
v -0.254680 -0.334093 0.624118
v -1.694992 -0.114366 1.691275
v -0.427634 -0.422409 2.397078
v -1.819089 -0.109951 2.464278
v -0.818989 -0.112779 2.758404
v 0.434422 0.390409 1.141565
v -0.001423 0.428137 0.648784
v 0.392442 0.064615 -0.027576
v -0.005544 0.412209 2.526883
v 0.623285 0.232499 2.616795
v 1.266923 0.154941 2.524243
v 0.677511 0.000000 2.954221
v 1.768618 0.000000 1.656634
v 0.592539 0.539902 1.920842
v 1.122956 0.230633 1.410348
v 1.934057 0.150370 2.167167
v 1.919703 0.000000 2.590773
v -0.000051 0.057626 0.023231
v -0.439427 0.390409 1.139648
v -0.392317 0.064615 -0.029297
v -0.634761 0.232499 2.614035
v -1.277987 0.154941 2.518660
v -0.690467 0.000000 2.951220
v -1.775869 0.000000 1.648858
v -0.600961 0.539902 1.918224
v -1.129133 0.230633 1.405407
v -1.943547 0.150370 2.158661
v -1.931052 0.000000 2.582325
v 0.434422 -0.390409 1.141565
v -0.001423 -0.428137 0.648784
v 0.392442 -0.064615 -0.027576
v -0.005544 -0.412209 2.526883
v 0.623285 -0.232499 2.616795
v 1.266923 -0.154941 2.524243
v 0.592539 -0.539902 1.920842
v 1.122956 -0.230633 1.410348
v 1.934057 -0.150370 2.167167
v -0.000051 -0.057626 0.023231
v -0.439427 -0.390409 1.139648
v -0.392317 -0.064615 -0.029297
v -0.634761 -0.232499 2.614035
v -1.277987 -0.154941 2.518660
v -0.600961 -0.539902 1.918224
v -1.129133 -0.230633 1.405407
v -1.943547 -0.150370 2.158661
v 1.184793 0.341767 2.031448
v -0.003824 0.666568 1.743129
v 0.000635 0.122247 -0.289265
v -1.193694 0.341767 2.026230
v 0.579770 0.000000 0.280936
v 2.163700 0.000000 2.276984
v 1.184793 -0.341767 2.031448
v 1.244704 0.000000 2.722822
v -0.003824 -0.666568 1.743129
v -0.580997 0.000000 0.278390
v 0.000635 -0.122247 -0.289265
v -2.173669 0.000000 2.267469
v -1.193694 -0.341767 2.026230
v -0.006858 -0.000000 3.125947
v -1.256638 0.000000 2.717334
v -0.000672 0.000000 0.306198
vn 0.2558 0.9484 -0.1873
vn 0.3764 0.9062 -0.1926
vn 0.3391 0.8729 -0.3508
vn 0.3107 0.9267 -0.2113
vn 0.6617 0.7328 -0.1583
vn 0.2948 0.9036 -0.3106
vn 0.4651 0.5201 -0.7164
vn 0.2765 0.9359 -0.2183
vn 0.7207 0.5650 -0.4017
vn 0.0688 0.9504 0.3033
vn 0.1494 0.8125 0.5635
vn 0.4068 0.8431 0.3517
vn 0.5219 0.7924 0.3159
vn 0.0967 0.9812 0.1671
vn 0.1429 0.6966 0.7031
vn 0.0110 0.7801 0.6256
vn 0.2847 0.6863 0.6693
vn 0.1734 0.8553 0.4883
vn -0.2198 0.9385 -0.2661
vn -0.3376 0.8729 -0.3523
vn -0.3414 0.9256 -0.1637
vn -0.3097 0.9267 -0.2127
vn -0.2935 0.9037 -0.3119
vn -0.5705 0.7693 -0.2874
vn -0.4619 0.5201 -0.7184
vn -0.7190 0.5650 -0.4049
vn -0.2948 0.9359 -0.1927
vn -0.1180 0.9544 0.2742
vn -0.4084 0.8431 0.3499
vn -0.1519 0.8125 0.5628
vn -0.5470 0.7378 0.3955
vn -0.1319 0.7149 0.6866
vn -0.0975 0.9812 0.1667
vn -0.0138 0.7801 0.6256
vn -0.1755 0.8553 0.4876
vn -0.2825 0.6728 0.6837
vn 0.2210 -0.9385 -0.2651
vn 0.3391 -0.8729 -0.3508
vn 0.3421 -0.9256 -0.1622
vn 0.3107 -0.9267 -0.2113
vn 0.2948 -0.9036 -0.3106
vn 0.5718 -0.7693 -0.2849
vn 0.4651 -0.5201 -0.7164
vn 0.7207 -0.5650 -0.4017
vn 0.2956 -0.9359 -0.1914
vn 0.1168 -0.9544 0.2747
vn 0.4068 -0.8431 0.3517
vn 0.1494 -0.8125 0.5635
vn 0.5453 -0.7378 0.3979
vn 0.1289 -0.7149 0.6872
vn 0.0967 -0.9812 0.1671
vn 0.0110 -0.7801 0.6256
vn 0.1734 -0.8553 0.4883
vn 0.2795 -0.6728 0.6850
vn -0.2550 -0.9484 -0.1885
vn -0.3755 -0.9062 -0.1942
vn -0.3376 -0.8729 -0.3523
vn -0.3097 -0.9267 -0.2127
vn -0.6610 -0.7328 -0.1612
vn -0.2935 -0.9036 -0.3119
vn -0.4619 -0.5201 -0.7184
vn -0.2755 -0.9359 -0.2195
vn -0.7190 -0.5650 -0.4049
vn -0.0702 -0.9504 0.3030
vn -0.1519 -0.8125 0.5628
vn -0.4084 -0.8431 0.3499
vn -0.5233 -0.7924 0.3136
vn -0.0975 -0.9812 0.1667
vn -0.1460 -0.6966 0.7025
vn -0.0138 -0.7801 0.6256
vn -0.2876 -0.6863 0.6681
vn -0.1755 -0.8553 0.4876
vn -0.2253 -0.9372 0.2661
vn -0.3407 -0.9252 0.1671
vn -0.3396 -0.8725 0.3513
vn -0.3223 -0.9220 0.2145
vn -0.5295 -0.8026 0.2747
vn -0.3061 -0.9014 0.3062
vn -0.4628 -0.5759 0.6739
vn -0.2931 -0.9357 0.1966
vn -0.6713 -0.6233 0.4011
vn -0.1196 -0.9531 -0.2781
vn -0.1513 -0.8116 -0.5643
vn -0.4022 -0.8439 -0.3550
vn -0.4457 -0.8254 -0.3466
vn -0.0978 -0.9805 -0.1703
vn -0.1239 -0.7756 -0.6190
vn -0.1016 -0.8267 -0.5533
vn -0.2485 -0.7532 -0.6091
vn -0.1732 -0.8561 -0.4870
vn 0.2573 -0.9470 0.1925
vn 0.3380 -0.8725 0.3527
vn 0.3737 -0.9055 0.2010
vn 0.3214 -0.9220 0.2159
vn 0.3048 -0.9014 0.3076
vn 0.5909 -0.7821 0.1981
vn 0.4598 -0.5759 0.6760
vn 0.6695 -0.6233 0.4041
vn 0.2775 -0.9353 0.2196
vn 0.0717 -0.9488 -0.3078
vn 0.4038 -0.8439 -0.3532
vn 0.1537 -0.8116 -0.5636
vn 0.4253 -0.8584 -0.2867
vn 0.1225 -0.7815 -0.6118
vn 0.0986 -0.9805 -0.1698
vn 0.1040 -0.8267 -0.5529
vn 0.1753 -0.8561 -0.4862
vn 0.2507 -0.7501 -0.6119
vn -0.2582 0.9470 0.1914
vn -0.3396 0.8725 0.3513
vn -0.3746 0.9055 0.1993
vn -0.3223 0.9220 0.2145
vn -0.3061 0.9014 0.3062
vn -0.5917 0.7821 0.1955
vn -0.4628 0.5759 0.6739
vn -0.6713 0.6233 0.4011
vn -0.2785 0.9353 0.2184
vn -0.0704 0.9488 -0.3081
vn -0.4022 0.8439 -0.3550
vn -0.1513 0.8116 -0.5643
vn -0.4241 0.8584 -0.2886
vn -0.1198 0.7815 -0.6123
vn -0.0978 0.9805 -0.1703
vn -0.1016 0.8267 -0.5533
vn -0.1732 0.8561 -0.4870
vn -0.2480 0.7501 -0.6130
vn 0.2241 0.9372 0.2671
vn 0.3400 0.9252 0.1686
vn 0.3380 0.8725 0.3527
vn 0.3214 0.9220 0.2159
vn 0.5283 0.8026 0.2770
vn 0.3048 0.9014 0.3076
vn 0.4598 0.5759 0.6760
vn 0.2922 0.9357 0.1979
vn 0.6695 0.6233 0.4041
vn 0.1208 0.9531 -0.2776
vn 0.1537 0.8116 -0.5636
vn 0.4038 0.8439 -0.3532
vn 0.4472 0.8254 -0.3446
vn 0.0986 0.9805 -0.1698
vn 0.1266 0.7756 -0.6184
vn 0.1040 0.8267 -0.5529
vn 0.2511 0.7532 -0.6080
vn 0.1753 0.8561 -0.4862
vn 0.5475 -0.5159 -0.6588
vn 0.4734 -0.2777 -0.8359
vn 0.1055 -0.9842 -0.1420
vn -0.4319 -0.4851 -0.7604
vn -0.1049 0.9842 -0.1424
vn 0.4352 0.4851 -0.7585
vn -0.5446 0.5159 -0.6612
vn -0.4697 0.2777 -0.8380
vn 0.2210 0.9385 -0.2651
vn 0.3421 0.9256 -0.1622
vn 0.3461 0.8590 -0.3773
vn 0.3009 0.9321 -0.2016
vn 0.5718 0.7693 -0.2849
vn 0.3201 0.9009 -0.2930
vn 0.4787 0.7745 -0.4136
vn 0.2956 0.9359 -0.1914
vn 0.6655 0.6229 -0.4112
vn 0.1168 0.9544 0.2747
vn 0.1386 0.7911 0.5958
vn 0.2262 0.8965 0.3809
vn 0.5453 0.7378 0.3979
vn 0.1861 0.9285 0.3215
vn 0.1289 0.7149 0.6872
vn 0.1495 0.7828 0.6041
vn 0.2795 0.6728 0.6850
vn 0.1601 0.9316 0.3264
vn -0.2550 0.9484 -0.1885
vn -0.3444 0.8590 -0.3788
vn -0.3755 0.9062 -0.1942
vn -0.3000 0.9321 -0.2029
vn -0.3188 0.9009 -0.2944
vn -0.6610 0.7328 -0.1612
vn -0.4768 0.7745 -0.4157
vn -0.6637 0.6229 -0.4141
vn -0.2755 0.9359 -0.2195
vn -0.0702 0.9504 0.3030
vn -0.2279 0.8965 0.3799
vn -0.1412 0.7911 0.5952
vn -0.5233 0.7924 0.3136
vn -0.1460 0.6966 0.7025
vn -0.1875 0.9285 0.3206
vn -0.1522 0.7828 0.6034
vn -0.1615 0.9316 0.3257
vn -0.2876 0.6863 0.6681
vn 0.2558 -0.9484 -0.1873
vn 0.3461 -0.8590 -0.3773
vn 0.3764 -0.9062 -0.1926
vn 0.3009 -0.9321 -0.2016
vn 0.3201 -0.9009 -0.2930
vn 0.6617 -0.7328 -0.1583
vn 0.4787 -0.7745 -0.4136
vn 0.6655 -0.6229 -0.4112
vn 0.2765 -0.9359 -0.2183
vn 0.0688 -0.9504 0.3033
vn 0.2262 -0.8965 0.3809
vn 0.1386 -0.7911 0.5958
vn 0.5219 -0.7924 0.3159
vn 0.1429 -0.6966 0.7031
vn 0.1861 -0.9285 0.3215
vn 0.1495 -0.7828 0.6041
vn 0.1601 -0.9316 0.3264
vn 0.2847 -0.6863 0.6693
vn -0.2198 -0.9385 -0.2661
vn -0.3414 -0.9256 -0.1637
vn -0.3444 -0.8590 -0.3788
vn -0.3000 -0.9321 -0.2029
vn -0.5705 -0.7693 -0.2874
vn -0.3188 -0.9009 -0.2944
vn -0.4768 -0.7745 -0.4157
vn -0.2948 -0.9359 -0.1927
vn -0.6637 -0.6229 -0.4141
vn -0.1180 -0.9544 0.2742
vn -0.1412 -0.7911 0.5952
vn -0.2279 -0.8965 0.3799
vn -0.5470 -0.7378 0.3955
vn -0.1875 -0.9285 0.3206
vn -0.1319 -0.7149 0.6866
vn -0.1522 -0.7828 0.6034
vn -0.2825 -0.6728 0.6837
vn -0.1615 -0.9316 0.3257
vn -0.2582 -0.9470 0.1914
vn -0.3746 -0.9055 0.1993
vn -0.3368 -0.8776 0.3412
vn -0.3087 -0.9295 0.2018
vn -0.5917 -0.7821 0.1955
vn -0.3274 -0.8985 0.2923
vn -0.4357 -0.8176 0.3765
vn -0.2785 -0.9353 0.2184
vn -0.6282 -0.6672 0.4001
vn -0.0704 -0.9488 -0.3081
vn -0.1525 -0.8140 -0.5605
vn -0.2273 -0.8945 -0.3850
vn -0.4241 -0.8584 -0.2886
vn -0.1790 -0.9295 -0.3225
vn -0.1198 -0.7815 -0.6123
vn -0.1372 -0.8258 -0.5470
vn -0.2480 -0.7501 -0.6130
vn -0.1592 -0.9316 -0.3267
vn 0.2241 -0.9372 0.2671
vn 0.3353 -0.8776 0.3427
vn 0.3400 -0.9252 0.1686
vn 0.3078 -0.9295 0.2032
vn 0.3261 -0.8985 0.2937
vn 0.5283 -0.8026 0.2770
vn 0.4340 -0.8176 0.3784
vn 0.6265 -0.6672 0.4029
vn 0.2922 -0.9357 0.1979
vn 0.1208 -0.9531 -0.2776
vn 0.2290 -0.8945 -0.3840
vn 0.1550 -0.8140 -0.5598
vn 0.4472 -0.8254 -0.3446
vn 0.1266 -0.7756 -0.6184
vn 0.1804 -0.9295 -0.3218
vn 0.1396 -0.8258 -0.5464
vn 0.1607 -0.9316 -0.3260
vn 0.2511 -0.7532 -0.6080
vn -0.2253 0.9372 0.2661
vn -0.3368 0.8776 0.3412
vn -0.3407 0.9252 0.1671
vn -0.3087 0.9295 0.2018
vn -0.3274 0.8985 0.2923
vn -0.5295 0.8026 0.2747
vn -0.4357 0.8176 0.3765
vn -0.6282 0.6672 0.4001
vn -0.2931 0.9357 0.1966
vn -0.1196 0.9531 -0.2781
vn -0.2273 0.8945 -0.3850
vn -0.1525 0.8140 -0.5605
vn -0.4457 0.8254 -0.3466
vn -0.1239 0.7756 -0.6190
vn -0.1790 0.9295 -0.3225
vn -0.1372 0.8258 -0.5470
vn -0.1592 0.9316 -0.3267
vn -0.2485 0.7532 -0.6091
vn 0.2573 0.9470 0.1925
vn 0.3737 0.9055 0.2010
vn 0.3353 0.8776 0.3427
vn 0.3078 0.9295 0.2032
vn 0.5909 0.7821 0.1981
vn 0.3261 0.8985 0.2937
vn 0.4340 0.8176 0.3784
vn 0.2775 0.9353 0.2196
vn 0.6265 0.6672 0.4029
vn 0.0717 0.9488 -0.3078
vn 0.1550 0.8140 -0.5598
vn 0.2290 0.8945 -0.3840
vn 0.4253 0.8584 -0.2867
vn 0.1804 0.9295 -0.3218
vn 0.1225 0.7815 -0.6118
vn 0.1396 0.8258 -0.5464
vn 0.2507 0.7501 -0.6119
vn 0.1607 0.9316 -0.3260
vn -0.1049 -0.9842 -0.1424
vn 0.4352 -0.4851 -0.7585
vn -0.5446 -0.5159 -0.6612
vn -0.4697 -0.2777 -0.8380
vn 0.5475 0.5159 -0.6588
vn 0.4734 0.2777 -0.8359
vn 0.1055 0.9842 -0.1420
vn -0.4319 0.4851 -0.7604
s off
f 1//1 66//1 33//1
f 1//2 65//2 34//2
f 34//3 25//3 1//3
f 26//4 25//4 2//4
f 2//5 69//5 27//5
f 27//6 26//6 2//6
f 32//7 34//7 3//7
f 3//8 65//8 35//8
f 35//9 32//9 3//9
f 4//10 66//10 28//10
f 28//11 29//11 4//11
f 29//12 33//12 4//12
f 5//13 70//13 35//13
f 35//14 30//14 5//14
f 5//15 72//15 36//15
f 29//16 31//16 6//16
f 6//17 72//17 30//17
f 30//18 29//18 6//18
f 7//19 66//19 38//19
f 38//20 45//20 7//20
f 7//21 68//21 44//21
f 38//22 26//22 8//22
f 26//23 39//23 8//23
f 8//24 74//24 38//24
f 45//25 43//25 9//25
f 43//26 46//26 9//26
f 9//27 68//27 45//27
f 10//28 66//28 44//28
f 44//29 40//29 10//29
f 40//30 28//30 10//30
f 11//31 76//31 47//31
f 11//32 79//32 41//32
f 41//33 46//33 11//33
f 42//34 40//34 12//34
f 40//35 41//35 12//35
f 12//36 79//36 42//36
f 13//37 73//37 48//37
f 48//38 55//38 13//38
f 13//39 71//39 54//39
f 48//40 49//40 14//40
f 49//41 50//41 14//41
f 14//42 69//42 48//42
f 55//43 32//43 15//43
f 32//44 56//44 15//44
f 15//45 71//45 55//45
f 16//46 73//46 54//46
f 54//47 52//47 16//47
f 52//48 51//48 16//48
f 17//49 70//49 36//49
f 17//50 72//50 53//50
f 53//51 56//51 17//51
f 31//52 52//52 18//52
f 52//53 53//53 18//53
f 18//54 72//54 31//54
f 19//55 73//55 62//55
f 19//56 77//56 63//56
f 63//57 58//57 19//57
f 49//58 58//58 20//58
f 20//59 74//59 59//59
f 59//60 49//60 20//60
f 43//61 63//61 21//61
f 21//62 77//62 64//62
f 64//63 43//63 21//63
f 22//64 73//64 51//64
f 51//65 60//65 22//65
f 60//66 62//66 22//66
f 23//67 76//67 64//67
f 64//68 61//68 23//68
f 23//69 79//69 47//69
f 60//70 42//70 24//70
f 24//71 79//71 61//71
f 61//72 60//72 24//72
f 81//73 146//73 105//73
f 81//74 145//74 113//74
f 105//75 114//75 81//75
f 105//76 106//76 82//76
f 82//77 149//77 105//77
f 106//78 107//78 82//78
f 114//79 112//79 83//79
f 83//80 145//80 114//80
f 112//81 115//81 83//81
f 84//82 146//82 113//82
f 109//83 108//83 84//83
f 113//84 109//84 84//84
f 85//85 150//85 116//85
f 110//86 115//86 85//86
f 85//87 152//87 110//87
f 111//88 109//88 86//88
f 86//89 152//89 111//89
f 109//90 110//90 86//90
f 87//91 146//91 124//91
f 125//92 118//92 87//92
f 87//93 148//93 125//93
f 106//94 118//94 88//94
f 119//95 106//95 88//95
f 88//96 154//96 119//96
f 123//97 125//97 89//97
f 126//98 123//98 89//98
f 89//99 148//99 126//99
f 90//100 146//100 108//100
f 120//101 124//101 90//101
f 108//102 120//102 90//102
f 91//103 156//103 126//103
f 91//104 159//104 127//104
f 126//105 121//105 91//105
f 120//106 122//106 92//106
f 121//107 120//107 92//107
f 92//108 159//108 121//108
f 93//109 153//109 134//109
f 135//110 128//110 93//110
f 93//111 151//111 135//111
f 129//112 128//112 94//112
f 130//113 129//113 94//113
f 94//114 149//114 130//114
f 112//115 135//115 95//115
f 136//116 112//116 95//116
f 95//117 151//117 136//117
f 96//118 153//118 131//118
f 132//119 134//119 96//119
f 131//120 132//120 96//120
f 97//121 150//121 136//121
f 97//122 152//122 116//122
f 136//123 133//123 97//123
f 132//124 111//124 98//124
f 133//125 132//125 98//125
f 98//126 152//126 133//126
f 99//127 153//127 138//127
f 99//128 157//128 142//128
f 138//129 143//129 99//129
f 138//130 129//130 100//130
f 100//131 154//131 138//131
f 129//132 139//132 100//132
f 143//133 123//133 101//133
f 101//134 157//134 143//134
f 123//135 144//135 101//135
f 102//136 153//136 142//136
f 140//137 131//137 102//137
f 142//138 140//138 102//138
f 103//139 156//139 127//139
f 141//140 144//140 103//140
f 103//141 159//141 141//141
f 122//142 140//142 104//142
f 104//143 159//143 122//143
f 140//144 141//144 104//144
f 69//145 107//145 27//145
f 27//146 147//146 67//146
f 74//147 119//147 154//147
f 39//148 147//148 119//148
f 69//149 130//149 149//149
f 50//150 155//150 130//150
f 74//151 139//151 59//151
f 59//152 155//152 75//152
f 1//153 25//153 66//153
f 1//154 33//154 65//154
f 34//155 69//155 25//155
f 26//156 66//156 25//156
f 2//157 25//157 69//157
f 27//158 67//158 26//158
f 32//159 69//159 34//159
f 3//160 34//160 65//160
f 35//161 70//161 32//161
f 4//162 33//162 66//162
f 28//163 78//163 29//163
f 29//164 65//164 33//164
f 5//165 36//165 70//165
f 35//166 65//166 30//166
f 5//167 30//167 72//167
f 29//168 78//168 31//168
f 6//169 31//169 72//169
f 30//170 65//170 29//170
f 7//171 44//171 66//171
f 38//172 74//172 45//172
f 7//173 45//173 68//173
f 38//174 66//174 26//174
f 26//175 67//175 39//175
f 8//176 39//176 74//176
f 45//177 74//177 43//177
f 43//178 76//178 46//178
f 9//179 46//179 68//179
f 10//180 28//180 66//180
f 44//181 68//181 40//181
f 40//182 78//182 28//182
f 11//183 46//183 76//183
f 11//184 47//184 79//184
f 41//185 68//185 46//185
f 42//186 78//186 40//186
f 40//187 68//187 41//187
f 12//188 41//188 79//188
f 13//189 54//189 73//189
f 48//190 69//190 55//190
f 13//191 55//191 71//191
f 48//192 73//192 49//192
f 49//193 75//193 50//193
f 14//194 50//194 69//194
f 55//195 69//195 32//195
f 32//196 70//196 56//196
f 15//197 56//197 71//197
f 16//198 51//198 73//198
f 54//199 71//199 52//199
f 52//200 78//200 51//200
f 17//201 56//201 70//201
f 17//202 36//202 72//202
f 53//203 71//203 56//203
f 31//204 78//204 52//204
f 52//205 71//205 53//205
f 18//206 53//206 72//206
f 19//207 58//207 73//207
f 19//208 62//208 77//208
f 63//209 74//209 58//209
f 49//210 73//210 58//210
f 20//211 58//211 74//211
f 59//212 75//212 49//212
f 43//213 74//213 63//213
f 21//214 63//214 77//214
f 64//215 76//215 43//215
f 22//216 62//216 73//216
f 51//217 78//217 60//217
f 60//218 77//218 62//218
f 23//219 47//219 76//219
f 64//220 77//220 61//220
f 23//221 61//221 79//221
f 60//222 78//222 42//222
f 24//223 42//223 79//223
f 61//224 77//224 60//224
f 81//225 113//225 146//225
f 81//226 114//226 145//226
f 105//227 149//227 114//227
f 105//228 146//228 106//228
f 82//229 107//229 149//229
f 106//230 147//230 107//230
f 114//231 149//231 112//231
f 83//232 115//232 145//232
f 112//233 150//233 115//233
f 84//234 108//234 146//234
f 109//235 158//235 108//235
f 113//236 145//236 109//236
f 85//237 115//237 150//237
f 110//238 145//238 115//238
f 85//239 116//239 152//239
f 111//240 158//240 109//240
f 86//241 110//241 152//241
f 109//242 145//242 110//242
f 87//243 118//243 146//243
f 125//244 154//244 118//244
f 87//245 124//245 148//245
f 106//246 146//246 118//246
f 119//247 147//247 106//247
f 88//248 118//248 154//248
f 123//249 154//249 125//249
f 126//250 156//250 123//250
f 89//251 125//251 148//251
f 90//252 124//252 146//252
f 120//253 148//253 124//253
f 108//254 158//254 120//254
f 91//255 127//255 156//255
f 91//256 121//256 159//256
f 126//257 148//257 121//257
f 120//258 158//258 122//258
f 121//259 148//259 120//259
f 92//260 122//260 159//260
f 93//261 128//261 153//261
f 135//262 149//262 128//262
f 93//263 134//263 151//263
f 129//264 153//264 128//264
f 130//265 155//265 129//265
f 94//266 128//266 149//266
f 112//267 149//267 135//267
f 136//268 150//268 112//268
f 95//269 135//269 151//269
f 96//270 134//270 153//270
f 132//271 151//271 134//271
f 131//272 158//272 132//272
f 97//273 116//273 150//273
f 97//274 133//274 152//274
f 136//275 151//275 133//275
f 132//276 158//276 111//276
f 133//277 151//277 132//277
f 98//278 111//278 152//278
f 99//279 142//279 153//279
f 99//280 143//280 157//280
f 138//281 154//281 143//281
f 138//282 153//282 129//282
f 100//283 139//283 154//283
f 129//284 155//284 139//284
f 143//285 154//285 123//285
f 101//286 144//286 157//286
f 123//287 156//287 144//287
f 102//288 131//288 153//288
f 140//289 158//289 131//289
f 142//290 157//290 140//290
f 103//291 144//291 156//291
f 141//292 157//292 144//292
f 103//293 127//293 159//293
f 122//294 158//294 140//294
f 104//295 141//295 159//295
f 140//296 157//296 141//296
f 69//297 149//297 107//297
f 27//298 107//298 147//298
f 74//299 39//299 119//299
f 39//300 67//300 147//300
f 69//301 50//301 130//301
f 50//302 75//302 155//302
f 74//303 154//303 139//303
f 59//304 139//304 155//304
l 67 37
l 37 80
l 75 57
l 57 80
l 147 117
l 117 160
l 155 137
l 137 160
