# Blender v2.79 (sub 0) OBJ File: 'ship2.blend'
# www.blender.org
o Cube
v 0.720074 0.494475 1.446834
v 0.285563 0.404992 0.605141
v 1.727943 0.177983 1.668990
v 0.431019 0.494475 2.433194
v 1.831560 0.177983 2.509510
v 0.822550 0.177983 2.807397
v -0.726415 0.494475 1.443661
v -0.288216 0.404992 0.603882
v -1.735250 0.177983 1.661392
v -0.441691 0.494475 2.431279
v -1.842553 0.177983 2.501450
v -0.834860 0.177983 2.803761
v 0.720074 -0.494475 1.446834
v 0.285563 -0.404992 0.605141
v 1.727943 -0.177983 1.668990
v 0.431019 -0.494475 2.433194
v 1.831560 -0.177983 2.509510
v 0.822550 -0.177983 2.807397
v -0.726415 -0.494475 1.443661
v -0.288216 -0.404992 0.603882
v -1.735250 -0.177983 1.661392
v -0.441691 -0.494475 2.431279
v -1.842553 -0.177983 2.501450
v -0.834860 -0.177983 2.803761
v 0.465245 0.462236 1.120312
v -0.001376 0.506240 0.627322
v 0.430444 0.132751 -0.049345
v -0.005623 0.484606 2.563206
v 0.637706 0.301602 2.656514
v 1.282345 0.222479 2.566214
v 0.701968 0.000000 3.031438
v 1.833710 0.000000 1.608430
v 0.612943 0.618093 1.926342
v 1.153109 0.301602 1.385553
v 1.970948 0.222479 2.167577
v 1.963231 0.000000 2.659081
v -0.000117 0.132751 0.053515
v -0.470156 0.462236 1.118260
v -0.430224 0.132751 -0.051233
v -0.649356 0.301602 2.653691
v -1.293593 0.222479 2.560563
v -0.715262 0.000000 3.028329
v -1.840749 0.000000 1.600368
v -0.621389 0.618093 1.923635
v -1.159178 0.301602 1.380480
v -1.980440 0.222479 2.158908
v -1.974879 0.000000 2.650441
v 0.465245 -0.462236 1.120312
v -0.001376 -0.506240 0.627322
v 0.430444 -0.132751 -0.049345
v -0.005623 -0.484606 2.563206
v 0.637706 -0.301602 2.656514
v 1.282345 -0.222479 2.566214
v 0.612943 -0.618093 1.926342
v 1.153109 -0.301602 1.385553
v 1.970948 -0.222479 2.167577
v -0.000117 -0.132751 0.053515
v -0.470156 -0.462236 1.118260
v -0.430224 -0.132751 -0.051233
v -0.649356 -0.301602 2.653691
v -1.293593 -0.222479 2.560563
v -0.621389 -0.618093 1.923635
v -1.159178 -0.301602 1.380480
v -1.980440 -0.222479 2.158908
v 1.205754 0.419264 2.042207
v -0.003815 0.747464 1.739065
v 0.000691 0.199126 -0.314768
v -1.214703 0.419264 2.036897
v 0.644993 0.000000 0.232908
v 2.244623 0.000000 2.273498
v 1.205754 -0.419264 2.042207
v 1.268307 0.000000 2.800304
v -0.003815 -0.747464 1.739065
v -0.646009 0.000000 0.230075
v 0.000691 -0.199126 -0.314768
v -2.254577 0.000000 2.263628
v -1.214703 -0.419264 2.036897
v -0.007036 -0.000000 3.206947
v -1.280581 0.000000 2.794712
v -0.000849 0.000000 0.387198
v 0.694982 0.420273 1.467450
v 0.251084 0.334911 0.626604
v 1.688036 0.117997 1.705999
v 0.413337 0.422522 2.400468
v 1.809795 0.108381 2.474259
v 0.809196 0.115384 2.757759
v -0.701414 0.420273 1.464387
v -0.253831 0.334911 0.625496
v -1.695505 0.117997 1.698577
v -0.423865 0.422522 2.398631
v -1.820634 0.108381 2.466294
v -0.821288 0.115384 2.754182
v 0.694982 -0.420273 1.467450
v 0.251084 -0.334911 0.626604
v 1.688036 -0.117997 1.705999
v 0.413337 -0.422522 2.400468
v 1.809795 -0.108381 2.474259
v 0.809196 -0.115384 2.757759
v -0.701414 -0.420273 1.464386
v -0.253831 -0.334911 0.625496
v -1.695505 -0.117997 1.698577
v -0.423865 -0.422522 2.398631
v -1.820634 -0.108381 2.466294
v -0.821288 -0.115384 2.754182
v 0.438511 0.389356 1.143436
v -0.001423 0.428113 0.648697
v 0.393444 0.063567 -0.029217
v -0.005538 0.413474 2.524462
v 0.623409 0.233167 2.615613
v 1.267739 0.153473 2.526396
v 0.681699 0.000000 2.953016
v 1.771405 0.000000 1.660188
v 0.592327 0.540075 1.919351
v 1.120833 0.232319 1.412366
v 1.931048 0.152103 2.171576
v 1.918086 0.000000 2.591830
v -0.000051 0.057626 0.023231
v -0.443524 0.389356 1.141501
v -0.393312 0.063567 -0.030943
v -0.634879 0.233167 2.612853
v -1.278812 0.153473 2.520809
v -0.694649 0.000000 2.949997
v -1.778673 0.000000 1.652399
v -0.600743 0.540075 1.916734
v -1.127019 0.232319 1.407434
v -1.940558 0.152103 2.163082
v -1.929440 0.000000 2.583389
v 0.438511 -0.389356 1.143436
v -0.001423 -0.428113 0.648697
v 0.393444 -0.063567 -0.029217
v -0.005538 -0.413474 2.524462
v 0.623409 -0.233167 2.615613
v 1.267739 -0.153473 2.526396
v 0.592327 -0.540075 1.919351
v 1.120833 -0.232319 1.412366
v 1.931048 -0.152103 2.171576
v -0.000051 -0.057626 0.023231
v -0.443524 -0.389356 1.141501
v -0.393312 -0.063567 -0.030943
v -0.634879 -0.233167 2.612853
v -1.278812 -0.153473 2.520809
v -0.600743 -0.540075 1.916734
v -1.127019 -0.232319 1.407434
v -1.940558 -0.152103 2.163082
v 1.184245 0.341455 2.035584
v -0.003817 0.666471 1.740027
v 0.000635 0.122116 -0.289665
v -1.193164 0.341455 2.030369
v 0.571498 0.000000 0.266952
v 2.163925 0.000000 2.266536
v 1.184245 -0.341455 2.035584
v 1.243449 0.000000 2.723215
v -0.003817 -0.666471 1.740027
v -0.572663 0.000000 0.264441
v 0.000635 -0.122116 -0.289665
v -2.173849 0.000000 2.257019
v -1.193164 -0.341455 2.030369
v -0.006858 -0.000000 3.125947
v -1.255386 0.000000 2.717732
v -0.000672 0.000000 0.306198
vn 0.2558 0.9484 -0.1873
vn 0.3764 0.9062 -0.1926
vn 0.3391 0.8729 -0.3508
vn 0.3107 0.9267 -0.2113
vn 0.6617 0.7328 -0.1583
vn 0.2948 0.9036 -0.3106
vn 0.4651 0.5201 -0.7164
vn 0.2765 0.9359 -0.2183
vn 0.7207 0.5650 -0.4017
vn 0.0688 0.9504 0.3033
vn 0.1494 0.8125 0.5635
vn 0.4068 0.8431 0.3517
vn 0.5219 0.7924 0.3159
vn 0.0967 0.9812 0.1671
vn 0.1429 0.6966 0.7031
vn 0.0110 0.7801 0.6256
vn 0.2847 0.6863 0.6693
vn 0.1734 0.8553 0.4883
vn -0.2198 0.9385 -0.2661
vn -0.3376 0.8729 -0.3523
vn -0.3414 0.9256 -0.1637
vn -0.3097 0.9267 -0.2127
vn -0.2935 0.9037 -0.3119
vn -0.5705 0.7693 -0.2874
vn -0.4619 0.5201 -0.7184
vn -0.7190 0.5650 -0.4049
vn -0.2948 0.9359 -0.1927
vn -0.1180 0.9544 0.2742
vn -0.4084 0.8431 0.3499
vn -0.1519 0.8125 0.5628
vn -0.5470 0.7378 0.3955
vn -0.1319 0.7149 0.6866
vn -0.0975 0.9812 0.1667
vn -0.0138 0.7801 0.6256
vn -0.1755 0.8553 0.4876
vn -0.2825 0.6728 0.6837
vn 0.2210 -0.9385 -0.2651
vn 0.3391 -0.8729 -0.3508
vn 0.3421 -0.9256 -0.1622
vn 0.3107 -0.9267 -0.2113
vn 0.2948 -0.9036 -0.3106
vn 0.5718 -0.7693 -0.2849
vn 0.4651 -0.5201 -0.7164
vn 0.7207 -0.5650 -0.4017
vn 0.2956 -0.9359 -0.1914
vn 0.1168 -0.9544 0.2747
vn 0.4068 -0.8431 0.3517
vn 0.1494 -0.8125 0.5635
vn 0.5453 -0.7378 0.3979
vn 0.1289 -0.7149 0.6872
vn 0.0967 -0.9812 0.1671
vn 0.0110 -0.7801 0.6256
vn 0.1734 -0.8553 0.4883
vn 0.2795 -0.6728 0.6850
vn -0.2550 -0.9484 -0.1885
vn -0.3755 -0.9062 -0.1942
vn -0.3376 -0.8729 -0.3523
vn -0.3097 -0.9267 -0.2127
vn -0.6610 -0.7328 -0.1612
vn -0.2935 -0.9036 -0.3119
vn -0.4619 -0.5201 -0.7184
vn -0.2755 -0.9359 -0.2195
vn -0.7190 -0.5650 -0.4049
vn -0.0702 -0.9504 0.3030
vn -0.1519 -0.8125 0.5628
vn -0.4084 -0.8431 0.3499
vn -0.5233 -0.7924 0.3136
vn -0.0975 -0.9812 0.1667
vn -0.1460 -0.6966 0.7025
vn -0.0138 -0.7801 0.6256
vn -0.2876 -0.6863 0.6681
vn -0.1755 -0.8553 0.4876
vn 0.2210 0.9385 -0.2651
vn 0.3421 0.9256 -0.1622
vn 0.3461 0.8590 -0.3773
vn 0.3009 0.9321 -0.2016
vn 0.5718 0.7693 -0.2849
vn 0.3201 0.9009 -0.2930
vn 0.4787 0.7745 -0.4136
vn 0.2956 0.9359 -0.1914
vn 0.6655 0.6229 -0.4112
vn 0.1168 0.9544 0.2747
vn 0.1386 0.7911 0.5958
vn 0.2262 0.8965 0.3809
vn 0.5453 0.7378 0.3979
vn 0.1861 0.9285 0.3215
vn 0.1289 0.7149 0.6872
vn 0.1495 0.7828 0.6041
vn 0.2795 0.6728 0.6850
vn 0.1601 0.9316 0.3264
vn -0.2550 0.9484 -0.1885
vn -0.3444 0.8590 -0.3788
vn -0.3755 0.9062 -0.1942
vn -0.3000 0.9321 -0.2029
vn -0.3188 0.9009 -0.2944
vn -0.6610 0.7328 -0.1612
vn -0.4768 0.7745 -0.4157
vn -0.6637 0.6229 -0.4141
vn -0.2755 0.9359 -0.2195
vn -0.0702 0.9504 0.3030
vn -0.2279 0.8965 0.3799
vn -0.1412 0.7911 0.5952
vn -0.5233 0.7924 0.3136
vn -0.1460 0.6966 0.7025
vn -0.1875 0.9285 0.3206
vn -0.1522 0.7828 0.6034
vn -0.1615 0.9316 0.3257
vn -0.2876 0.6863 0.6681
vn 0.2558 -0.9484 -0.1873
vn 0.3461 -0.8590 -0.3773
vn 0.3764 -0.9062 -0.1926
vn 0.3009 -0.9321 -0.2016
vn 0.3201 -0.9009 -0.2930
vn 0.6617 -0.7328 -0.1583
vn 0.4787 -0.7745 -0.4136
vn 0.6655 -0.6229 -0.4112
vn 0.2765 -0.9359 -0.2183
vn 0.0688 -0.9504 0.3033
vn 0.2262 -0.8965 0.3809
vn 0.1386 -0.7911 0.5958
vn 0.5219 -0.7924 0.3159
vn 0.1429 -0.6966 0.7031
vn 0.1861 -0.9285 0.3215
vn 0.1495 -0.7828 0.6041
vn 0.1601 -0.9316 0.3264
vn 0.2847 -0.6863 0.6693
vn -0.2198 -0.9385 -0.2661
vn -0.3414 -0.9256 -0.1637
vn -0.3444 -0.8590 -0.3788
vn -0.3000 -0.9321 -0.2029
vn -0.5705 -0.7693 -0.2874
vn -0.3188 -0.9009 -0.2944
vn -0.4768 -0.7745 -0.4157
vn -0.2948 -0.9359 -0.1927
vn -0.6637 -0.6229 -0.4141
vn -0.1180 -0.9544 0.2742
vn -0.1412 -0.7911 0.5952
vn -0.2279 -0.8965 0.3799
vn -0.5470 -0.7378 0.3955
vn -0.1875 -0.9285 0.3206
vn -0.1319 -0.7149 0.6866
vn -0.1522 -0.7828 0.6034
vn -0.2825 -0.6728 0.6837
vn -0.1615 -0.9316 0.3257
vn -0.2585 -0.9467 0.1922
vn -0.3745 -0.9061 0.1968
vn -0.3395 -0.8723 0.3519
vn -0.3217 -0.9224 0.2138
vn -0.5977 -0.7783 0.1923
vn -0.3059 -0.9014 0.3065
vn -0.4627 -0.5854 0.6658
vn -0.2764 -0.9372 0.2129
vn -0.6705 -0.6274 0.3959
vn -0.0702 -0.9493 -0.3063
vn -0.1502 -0.8103 -0.5665
vn -0.3987 -0.8456 -0.3549
vn -0.4344 -0.8504 -0.2969
vn -0.0988 -0.9785 -0.1809
vn -0.1191 -0.7823 -0.6114
vn -0.1002 -0.8265 -0.5539
vn -0.2479 -0.7489 -0.6146
vn -0.1731 -0.8576 -0.4843
vn 0.2243 -0.9367 0.2689
vn 0.3379 -0.8723 0.3534
vn 0.3423 -0.9244 0.1686
vn 0.3208 -0.9224 0.2153
vn 0.3045 -0.9014 0.3079
vn 0.5275 -0.8026 0.2786
vn 0.4597 -0.5854 0.6678
vn 0.6687 -0.6274 0.3989
vn 0.2883 -0.9375 0.1949
vn 0.1200 -0.9535 -0.2766
vn 0.4003 -0.8456 -0.3532
vn 0.1527 -0.8103 -0.5658
vn 0.4542 -0.8234 -0.3401
vn 0.1268 -0.7750 -0.6191
vn 0.0996 -0.9785 -0.1805
vn 0.1027 -0.8265 -0.5534
vn 0.1753 -0.8576 -0.4836
vn 0.2514 -0.7540 -0.6069
vn -0.2255 0.9367 0.2679
vn -0.3395 0.8723 0.3519
vn -0.3430 0.9244 0.1671
vn -0.3217 0.9224 0.2138
vn -0.3059 0.9014 0.3065
vn -0.5287 0.8026 0.2763
vn -0.4627 0.5854 0.6658
vn -0.6705 0.6274 0.3959
vn -0.2892 0.9375 0.1936
vn -0.1188 0.9535 -0.2772
vn -0.3987 0.8456 -0.3549
vn -0.1502 0.8103 -0.5665
vn -0.4527 0.8234 -0.3421
vn -0.1241 0.7750 -0.6196
vn -0.0988 0.9785 -0.1809
vn -0.1002 0.8265 -0.5539
vn -0.1731 0.8576 -0.4843
vn -0.2487 0.7540 -0.6080
vn 0.2577 0.9467 0.1934
vn 0.3736 0.9061 0.1984
vn 0.3379 0.8723 0.3534
vn 0.3208 0.9224 0.2153
vn 0.5969 0.7783 0.1949
vn 0.3045 0.9014 0.3079
vn 0.4597 0.5854 0.6678
vn 0.2755 0.9372 0.2141
vn 0.6687 0.6274 0.3989
vn 0.0715 0.9493 -0.3060
vn 0.1527 0.8103 -0.5658
vn 0.4003 0.8456 -0.3532
vn 0.4357 0.8504 -0.2949
vn 0.0996 0.9785 -0.1805
vn 0.1218 0.7823 -0.6109
vn 0.1027 0.8265 -0.5534
vn 0.2506 0.7489 -0.6135
vn 0.1753 0.8576 -0.4836
vn -0.2255 -0.9367 0.2679
vn -0.3430 -0.9244 0.1671
vn -0.3360 -0.8786 0.3393
vn -0.3093 -0.9292 0.2023
vn -0.5287 -0.8026 0.2763
vn -0.3277 -0.8984 0.2923
vn -0.4351 -0.8187 0.3747
vn -0.2892 -0.9375 0.1936
vn -0.6098 -0.6872 0.3948
vn -0.1188 -0.9535 -0.2772
vn -0.1523 -0.8143 -0.5601
vn -0.2249 -0.8953 -0.3846
vn -0.4527 -0.8234 -0.3421
vn -0.1762 -0.9289 -0.3258
vn -0.1241 -0.7750 -0.6196
vn -0.1374 -0.8258 -0.5470
vn -0.2487 -0.7540 -0.6080
vn -0.1607 -0.9305 -0.3291
vn 0.2577 -0.9467 0.1934
vn 0.3345 -0.8786 0.3408
vn 0.3736 -0.9061 0.1984
vn 0.3084 -0.9292 0.2036
vn 0.3264 -0.8984 0.2937
vn 0.5969 -0.7783 0.1949
vn 0.4335 -0.8187 0.3766
vn 0.6081 -0.6872 0.3974
vn 0.2755 -0.9372 0.2141
vn 0.0715 -0.9493 -0.3060
vn 0.2266 -0.8953 -0.3836
vn 0.1547 -0.8143 -0.5594
vn 0.4357 -0.8504 -0.2949
vn 0.1218 -0.7823 -0.6109
vn 0.1776 -0.9289 -0.3250
vn 0.1398 -0.8258 -0.5463
vn 0.1621 -0.9305 -0.3284
vn 0.2506 -0.7489 -0.6135
vn -0.2585 0.9467 0.1922
vn -0.3360 0.8786 0.3393
vn -0.3745 0.9061 0.1968
vn -0.3093 0.9292 0.2023
vn -0.3277 0.8984 0.2923
vn -0.5977 0.7783 0.1923
vn -0.4351 0.8187 0.3747
vn -0.6098 0.6872 0.3948
vn -0.2764 0.9372 0.2129
vn -0.0702 0.9493 -0.3063
vn -0.2249 0.8953 -0.3846
vn -0.1523 0.8143 -0.5601
vn -0.4344 0.8504 -0.2969
vn -0.1191 0.7823 -0.6114
vn -0.1762 0.9289 -0.3258
vn -0.1374 0.8258 -0.5470
vn -0.1607 0.9305 -0.3291
vn -0.2479 0.7489 -0.6146
vn 0.2243 0.9367 0.2689
vn 0.3423 0.9244 0.1686
vn 0.3345 0.8786 0.3408
vn 0.3084 0.9292 0.2036
vn 0.5275 0.8026 0.2786
vn 0.3264 0.8984 0.2937
vn 0.4335 0.8187 0.3766
vn 0.2883 0.9375 0.1949
vn 0.6081 0.6872 0.3974
vn 0.1200 0.9535 -0.2766
vn 0.1547 0.8143 -0.5594
vn 0.2266 0.8953 -0.3836
vn 0.4542 0.8234 -0.3401
vn 0.1776 0.9289 -0.3250
vn 0.1268 0.7750 -0.6191
vn 0.1398 0.8258 -0.5463
vn 0.2514 0.7540 -0.6069
vn 0.1621 0.9305 -0.3284
vn 0.2867 -0.8311 -0.4766
vn 0.4609 -0.3668 -0.8081
vn -0.2846 -0.8311 -0.4779
vn -0.4574 -0.3668 -0.8101
vn 0.2867 0.8311 -0.4766
vn 0.4609 0.3668 -0.8081
vn -0.2846 0.8311 -0.4779
vn -0.4574 0.3668 -0.8101
s off
f 1//1 66//1 33//1
f 1//2 65//2 34//2
f 34//3 25//3 1//3
f 26//4 25//4 2//4
f 2//5 69//5 27//5
f 27//6 26//6 2//6
f 32//7 34//7 3//7
f 3//8 65//8 35//8
f 35//9 32//9 3//9
f 4//10 66//10 28//10
f 28//11 29//11 4//11
f 29//12 33//12 4//12
f 5//13 70//13 35//13
f 35//14 30//14 5//14
f 5//15 72//15 36//15
f 29//16 31//16 6//16
f 6//17 72//17 30//17
f 30//18 29//18 6//18
f 7//19 66//19 38//19
f 38//20 45//20 7//20
f 7//21 68//21 44//21
f 38//22 26//22 8//22
f 26//23 39//23 8//23
f 8//24 74//24 38//24
f 45//25 43//25 9//25
f 43//26 46//26 9//26
f 9//27 68//27 45//27
f 10//28 66//28 44//28
f 44//29 40//29 10//29
f 40//30 28//30 10//30
f 11//31 76//31 47//31
f 11//32 79//32 41//32
f 41//33 46//33 11//33
f 42//34 40//34 12//34
f 40//35 41//35 12//35
f 12//36 79//36 42//36
f 13//37 73//37 48//37
f 48//38 55//38 13//38
f 13//39 71//39 54//39
f 48//40 49//40 14//40
f 49//41 50//41 14//41
f 14//42 69//42 48//42
f 55//43 32//43 15//43
f 32//44 56//44 15//44
f 15//45 71//45 55//45
f 16//46 73//46 54//46
f 54//47 52//47 16//47
f 52//48 51//48 16//48
f 17//49 70//49 36//49
f 17//50 72//50 53//50
f 53//51 56//51 17//51
f 31//52 52//52 18//52
f 52//53 53//53 18//53
f 18//54 72//54 31//54
f 19//55 73//55 62//55
f 19//56 77//56 63//56
f 63//57 58//57 19//57
f 49//58 58//58 20//58
f 20//59 74//59 59//59
f 59//60 49//60 20//60
f 43//61 63//61 21//61
f 21//62 77//62 64//62
f 64//63 43//63 21//63
f 22//64 73//64 51//64
f 51//65 60//65 22//65
f 60//66 62//66 22//66
f 23//67 76//67 64//67
f 64//68 61//68 23//68
f 23//69 79//69 47//69
f 60//70 42//70 24//70
f 24//71 79//71 61//71
f 61//72 60//72 24//72
f 1//73 25//73 66//73
f 1//74 33//74 65//74
f 34//75 69//75 25//75
f 26//76 66//76 25//76
f 2//77 25//77 69//77
f 27//78 67//78 26//78
f 32//79 69//79 34//79
f 3//80 34//80 65//80
f 35//81 70//81 32//81
f 4//82 33//82 66//82
f 28//83 78//83 29//83
f 29//84 65//84 33//84
f 5//85 36//85 70//85
f 35//86 65//86 30//86
f 5//87 30//87 72//87
f 29//88 78//88 31//88
f 6//89 31//89 72//89
f 30//90 65//90 29//90
f 7//91 44//91 66//91
f 38//92 74//92 45//92
f 7//93 45//93 68//93
f 38//94 66//94 26//94
f 26//95 67//95 39//95
f 8//96 39//96 74//96
f 45//97 74//97 43//97
f 43//98 76//98 46//98
f 9//99 46//99 68//99
f 10//100 28//100 66//100
f 44//101 68//101 40//101
f 40//102 78//102 28//102
f 11//103 46//103 76//103
f 11//104 47//104 79//104
f 41//105 68//105 46//105
f 42//106 78//106 40//106
f 40//107 68//107 41//107
f 12//108 41//108 79//108
f 13//109 54//109 73//109
f 48//110 69//110 55//110
f 13//111 55//111 71//111
f 48//112 73//112 49//112
f 49//113 75//113 50//113
f 14//114 50//114 69//114
f 55//115 69//115 32//115
f 32//116 70//116 56//116
f 15//117 56//117 71//117
f 16//118 51//118 73//118
f 54//119 71//119 52//119
f 52//120 78//120 51//120
f 17//121 56//121 70//121
f 17//122 36//122 72//122
f 53//123 71//123 56//123
f 31//124 78//124 52//124
f 52//125 71//125 53//125
f 18//126 53//126 72//126
f 19//127 58//127 73//127
f 19//128 62//128 77//128
f 63//129 74//129 58//129
f 49//130 73//130 58//130
f 20//131 58//131 74//131
f 59//132 75//132 49//132
f 43//133 74//133 63//133
f 21//134 63//134 77//134
f 64//135 76//135 43//135
f 22//136 62//136 73//136
f 51//137 78//137 60//137
f 60//138 77//138 62//138
f 23//139 47//139 76//139
f 64//140 77//140 61//140
f 23//141 61//141 79//141
f 60//142 78//142 42//142
f 24//143 42//143 79//143
f 61//144 77//144 60//144
f 81//145 113//145 146//145
f 81//146 114//146 145//146
f 114//147 81//147 105//147
f 106//148 82//148 105//148
f 82//149 107//149 149//149
f 107//150 82//150 106//150
f 112//151 83//151 114//151
f 83//152 115//152 145//152
f 115//153 83//153 112//153
f 84//154 108//154 146//154
f 108//155 84//155 109//155
f 109//156 84//156 113//156
f 85//157 115//157 150//157
f 115//158 85//158 110//158
f 85//159 116//159 152//159
f 109//160 86//160 111//160
f 86//161 110//161 152//161
f 110//162 86//162 109//162
f 87//163 118//163 146//163
f 118//164 87//164 125//164
f 87//165 124//165 148//165
f 118//166 88//166 106//166
f 106//167 88//167 119//167
f 88//168 118//168 154//168
f 125//169 89//169 123//169
f 123//170 89//170 126//170
f 89//171 125//171 148//171
f 90//172 124//172 146//172
f 124//173 90//173 120//173
f 120//174 90//174 108//174
f 91//175 127//175 156//175
f 91//176 121//176 159//176
f 121//177 91//177 126//177
f 122//178 92//178 120//178
f 120//179 92//179 121//179
f 92//180 122//180 159//180
f 93//181 128//181 153//181
f 128//182 93//182 135//182
f 93//183 134//183 151//183
f 128//184 94//184 129//184
f 129//185 94//185 130//185
f 94//186 128//186 149//186
f 135//187 95//187 112//187
f 112//188 95//188 136//188
f 95//189 135//189 151//189
f 96//190 134//190 153//190
f 134//191 96//191 132//191
f 132//192 96//192 131//192
f 97//193 116//193 150//193
f 97//194 133//194 152//194
f 133//195 97//195 136//195
f 111//196 98//196 132//196
f 132//197 98//197 133//197
f 98//198 111//198 152//198
f 99//199 142//199 153//199
f 99//200 143//200 157//200
f 143//201 99//201 138//201
f 129//202 100//202 138//202
f 100//203 139//203 154//203
f 139//204 100//204 129//204
f 123//205 101//205 143//205
f 101//206 144//206 157//206
f 144//207 101//207 123//207
f 102//208 131//208 153//208
f 131//209 102//209 140//209
f 140//210 102//210 142//210
f 103//211 144//211 156//211
f 144//212 103//212 141//212
f 103//213 127//213 159//213
f 140//214 104//214 122//214
f 104//215 141//215 159//215
f 141//216 104//216 140//216
f 81//217 146//217 105//217
f 81//218 145//218 113//218
f 114//219 105//219 149//219
f 106//220 105//220 146//220
f 82//221 149//221 105//221
f 107//222 106//222 147//222
f 112//223 114//223 149//223
f 83//224 145//224 114//224
f 115//225 112//225 150//225
f 84//226 146//226 113//226
f 108//227 109//227 158//227
f 109//228 113//228 145//228
f 85//229 150//229 116//229
f 115//230 110//230 145//230
f 85//231 152//231 110//231
f 109//232 111//232 158//232
f 86//233 152//233 111//233
f 110//234 109//234 145//234
f 87//235 146//235 124//235
f 118//236 125//236 154//236
f 87//237 148//237 125//237
f 118//238 106//238 146//238
f 106//239 119//239 147//239
f 88//240 154//240 119//240
f 125//241 123//241 154//241
f 123//242 126//242 156//242
f 89//243 148//243 126//243
f 90//244 146//244 108//244
f 124//245 120//245 148//245
f 120//246 108//246 158//246
f 91//247 156//247 126//247
f 91//248 159//248 127//248
f 121//249 126//249 148//249
f 122//250 120//250 158//250
f 120//251 121//251 148//251
f 92//252 159//252 121//252
f 93//253 153//253 134//253
f 128//254 135//254 149//254
f 93//255 151//255 135//255
f 128//256 129//256 153//256
f 129//257 130//257 155//257
f 94//258 149//258 130//258
f 135//259 112//259 149//259
f 112//260 136//260 150//260
f 95//261 151//261 136//261
f 96//262 153//262 131//262
f 134//263 132//263 151//263
f 132//264 131//264 158//264
f 97//265 150//265 136//265
f 97//266 152//266 116//266
f 133//267 136//267 151//267
f 111//268 132//268 158//268
f 132//269 133//269 151//269
f 98//270 152//270 133//270
f 99//271 153//271 138//271
f 99//272 157//272 142//272
f 143//273 138//273 154//273
f 129//274 138//274 153//274
f 100//275 154//275 138//275
f 139//276 129//276 155//276
f 123//277 143//277 154//277
f 101//278 157//278 143//278
f 144//279 123//279 156//279
f 102//280 153//280 142//280
f 131//281 140//281 158//281
f 140//282 142//282 157//282
f 103//283 156//283 127//283
f 144//284 141//284 157//284
f 103//285 159//285 141//285
f 140//286 122//286 158//286
f 104//287 159//287 122//287
f 141//288 140//288 157//288
f 27//289 69//289 149//289 107//289
f 67//290 27//290 107//290 147//290
f 74//291 39//291 119//291 154//291
f 39//292 67//292 147//292 119//292
f 69//293 50//293 130//293 149//293
f 50//294 75//294 155//294 130//294
f 59//295 74//295 154//295 139//295
f 75//296 59//296 139//296 155//296
l 67 37
l 37 80
l 75 57
l 57 80
l 147 117
l 117 160
l 155 137
l 137 160
