# Blender v2.79 (sub 0) OBJ File: 'skybox.blend'
# www.blender.org
mtllib skybox.mtl
o Cube
v 1.000000 -1.000000 -1.000000
v 1.000000 -1.000000 1.000000
v -1.000000 -1.000000 1.000000
v -1.000000 -1.000000 -1.000000
v 1.000000 1.000000 -0.999999
v 0.999999 1.000000 1.000001
v -1.000000 1.000000 1.000000
v -1.000000 1.000000 -1.000000
vt 0.500000 0.000087
vt 0.250044 0.000087
vt 0.250130 0.333334
vt 0.249958 0.666667
vt 0.250001 1.000001
vt 0.499958 1.000002
vt 0.999828 0.666667
vt 1.000000 0.333335
vt 0.750043 0.333335
vt 0.749871 0.666667
vt 0.500087 0.333334
vt 0.000173 0.333334
vt 0.000001 0.666666
vt 0.499914 0.666667
vn 0.0000 1.0000 0.0000
vn 0.0000 -1.0000 -0.0000
vn -1.0000 0.0000 0.0000
vn 0.0000 0.0000 -1.0000
vn 1.0000 0.0000 0.0000
vn -0.0000 -0.0000 1.0000
usemtl Material
s off
f 2/1/1 1/2/1 4/3/1
f 8/4/2 5/5/2 6/6/2
f 5/7/3 1/8/3 2/9/3
f 6/10/4 2/9/4 3/11/4
f 3/11/5 4/3/5 8/4/5
f 1/12/6 5/13/6 8/4/6
f 2/1/1 4/3/1 3/11/1
f 8/4/2 6/6/2 7/14/2
f 5/7/3 2/9/3 6/10/3
f 6/10/4 3/11/4 7/14/4
f 3/11/5 8/4/5 7/14/5
f 1/12/6 8/4/6 4/3/6
